<?xml version="1.0" encoding="UTF-8"?>
<!DOCTYPE svg PUBLIC "-//W3C//DTD SVG 1.1//EN" "http://www.w3.org/Graphics/SVG/1.1/DTD/svg11.dtd">
<!-- Creator: CorelDRAW 2021 (64-Bit) -->
<svg xmlns="http://www.w3.org/2000/svg" xml:space="preserve" width="2480px" height="3508px" version="1.1" style="shape-rendering:geometricPrecision; text-rendering:geometricPrecision; image-rendering:optimizeQuality; fill-rule:evenodd; clip-rule:evenodd"
viewBox="0 0 2480 3507.43"
 xmlns:xlink="http://www.w3.org/1999/xlink"
 xmlns:xodm="http://www.corel.com/coreldraw/odm/2003">
 <defs>
  <style type="text/css">
   <![CDATA[
    .fil1 {fill:#D7B56D}
    .fil2 {fill:#FEFEFE;fill-rule:nonzero}
    .fil0 {fill:#D7B56D;fill-rule:nonzero}
   ]]>
  </style>
 </defs>
 <g id="Layer_x0020_1">
  <metadata id="CorelCorpID_0Corel-Layer"/>
  <g id="_1752456789872">
   <path class="fil0" d="M699.78 1823.7c28.2,-12.52 79.2,-50.13 100.65,-71.08 18.84,-18.4 30.85,-9.78 8.6,14.05 -19.21,20.56 -38.67,46 -60.95,70.78 -47.26,52.52 -98.74,90.28 -170.35,100.15 -54.41,7.5 -112.25,-4.45 -112.25,-53.2 0,-8.74 2.5,-15.94 7.42,-21.53 4.99,-5.65 11.31,-8.44 19.1,-8.44 5.58,0 10.21,1.76 13.88,5.29 3.67,3.52 5.51,8.08 5.51,13.66 0,5.29 -1.76,9.47 -5.29,12.56 -3.52,3.09 -8.15,4.63 -14.03,4.63 -1.03,0 -2.72,-0.22 -4.99,-0.74 -2.28,-0.51 -4.04,-0.8 -5.36,-0.8 -0.89,0.14 -1.47,0.58 -1.91,1.24 -0.45,0.59 -0.67,1.62 -0.67,2.87 0,9.25 6.39,16.82 19.18,22.84 12.78,5.95 29.6,8.96 50.53,8.96 69.34,0 118.29,-40.31 159.47,-92.25 -40.74,17.7 -107.26,27.13 -98.9,-38.97 6.77,-53.46 57.55,-108.54 118.12,-144.93 94.77,-56.93 222.06,-81.29 307.85,-83.13 142.46,-3.04 224.73,45.67 243.54,59.6 -20.84,-30.32 -135.88,-80.48 -253.25,-75.92 -117.38,4.55 -251,44.78 -307.75,82.16 134.93,-131.89 443.67,-218.12 585.21,-55.53 75.05,86.21 17.74,142.24 -66.41,98.94 -91.39,-47.02 -175.03,-73.99 -272.66,-84.69 -0.55,0.06 139.17,26.14 169.31,67.67 5.82,8.02 1.86,5.59 -2.95,3.01 -58.32,-31.26 -239.62,-51.66 -294.64,-30.63 0,0 2.19,-2.71 25.06,7.48 12.86,5.72 25.82,19.03 32.01,27 4.83,6.22 5.54,9.2 -1.09,2.87 -117.18,-111.86 -381.36,240.18 -191.99,156.08z"/>
   <path class="fil1" d="M1438.86 1838.27c-19.41,4.81 -38.22,11.81 -55.8,21.4 -1.17,0.64 -4.71,2.62 -6.03,2.62 -1.03,0 -1.91,-0.37 -2.71,-1.05 -0.8,-0.72 -1.27,-1.6 -1.27,-2.66 0,-5.98 15.16,-12.35 19.51,-14.24 17.95,-7.81 37.89,-13.97 56.64,-19.67 10.42,-15.95 21.69,-32.02 34.25,-46.36 3.77,-4.3 16.04,-18.49 22.3,-18.49 0.85,0 1.72,0.2 2.41,0.71l0.08 0.06 0.07 0.07c0.62,0.62 0.89,1.48 0.89,2.35 0,1.75 -3.95,6.54 -5.01,7.88 -11.73,14.85 -22.02,30.75 -30.56,47.62 8.88,-2.21 17.64,-4.93 26.22,-8.13 2.3,-0.86 14.26,-5.59 16.41,-5.59 1.41,0 2.89,0.23 4.09,1.01 1.14,0.76 1.76,1.94 1.76,3.31 0,2.89 -5.92,7.33 -7.96,8.91 -4.28,3.34 -8.36,7.22 -11.43,11.73 -2.25,3.31 -4.23,6.85 -6.07,10.41 -1.02,1.99 -3.41,6.69 -6.08,6.69 -1.98,0 -3.99,-0.3 -5.74,-1.27 -1.58,-0.88 -2.68,-2.24 -2.68,-4.1 0,-2.41 2.67,-6.67 3.93,-8.65 2.16,-3.4 4.62,-6.68 7.18,-9.84 -3.25,0.85 -6.49,1.76 -9.7,2.73 -5.91,1.77 -11.78,3.71 -17.62,5.67 -16.79,27.7 -37.92,57.58 -63.17,78.17 -18.58,15.16 -40.14,25.75 -64.52,25.75 -10.67,0 -21.69,-2.05 -30.38,-8.62 -7.66,-5.79 -11.55,-13.53 -11.55,-23.14 0,-5.08 1.36,-9.86 4.76,-13.71 3.28,-3.71 7.44,-5.49 12.39,-5.49 3.52,0 6.75,1.05 9.27,3.55 2.51,2.48 3.65,5.59 3.65,9.11 0,3.33 -1.09,6.29 -3.62,8.51 -2.6,2.28 -5.85,3.09 -9.26,3.09 -1.04,0 -2.25,-0.24 -3.27,-0.47 -0.78,-0.17 -1.83,-0.42 -2.64,-0.44 -0.07,0.01 -0.15,0.02 -0.17,0.02 -0.09,0.2 -0.18,0.91 -0.2,1.1 0.01,5.12 3.83,8.87 7.92,11.53 6.03,3.91 12.98,5.36 20.09,5.36 15.38,0 29.47,-7.84 41.12,-17.27 9.64,-7.79 18.78,-17.75 26.99,-27 12.33,-13.92 24.07,-28.49 35.51,-43.17zm-498 54.65c2.36,-2.87 5.01,-5.51 7.81,-7.96 7.27,-6.38 15.3,-11.83 24.11,-15.87 6.91,-3.19 14.92,-5.94 22.61,-5.94 2.97,0 6.59,0.39 8.99,2.32 1.52,1.22 2.45,2.95 3.02,4.79l75.98 -93.57c0.87,-1.07 1.91,-2.07 3.14,-2.71 1.27,-0.67 2.81,-0.86 4.22,-0.86 2.38,0 4.97,0.21 7.21,1.05 1.69,0.63 3.53,1.77 3.53,3.8 0,0.85 -0.16,1.69 -0.53,2.44 -0.46,0.98 -1.42,2 -2.15,2.73l-107.37 127.34c-2.05,2.33 -4.2,4.94 -5.73,7.63 -0.72,1.27 -1.74,3.27 -1.74,4.76 0,0.24 0.05,1.01 0.28,1.23 0.31,0.26 1.37,0.3 1.68,0.3 4.78,0 11.8,-3.23 16,-5.31 8.13,-4.02 15.82,-9.11 23.02,-14.6 3.74,-2.85 7.38,-5.81 10.93,-8.89 1.42,-1.23 2.87,-2.46 4.38,-3.59 4.11,-5.95 9.49,-11.01 15.29,-15.28 5.44,-3.99 11.33,-7.57 17.57,-10.15 4.88,-2.03 10.14,-3.43 15.45,-3.43 3.04,0 7.06,0.32 9.55,2.27 2.43,1.9 3.11,5 3.11,7.94 0,9.07 -8.34,16.66 -15.06,21.59 -10.55,7.73 -22.93,12.41 -35.67,15.06 -0.56,1.25 -1.02,2.54 -1.36,3.87 -0.3,1.2 -0.52,2.47 -0.52,3.72 0,2.07 0.55,3.96 2.14,5.35 1.73,1.52 4.09,1.97 6.32,1.97 6.38,0 13.49,-2.92 19.08,-5.78 8.79,-4.49 17.06,-10.41 24.69,-16.62 2.8,-2.42 5.58,-4.91 8.33,-7.42 1.06,-0.97 2.15,-1.94 3.29,-2.84 2.21,-2.55 4.98,-5.01 7.5,-7.25 0.94,-0.83 1.97,-1.7 2.88,-2.66 5.9,-5.15 12.34,-10.43 19.07,-14.34 4.18,-2.43 9.46,-4.86 14.4,-4.86 2.88,0 5.47,0.96 7.32,3.22 2,2.46 2.49,5.89 2.49,8.96 0,0.77 -0.05,1.55 -0.13,2.32 -0.03,0.24 -0.05,0.47 -0.07,0.7 5.77,-3.98 11.97,-8.02 18.18,-11 4.16,-2.01 9.22,-3.93 13.91,-3.93 2.81,0 5.46,0.82 7.46,2.86 2,2.06 2.75,4.78 2.75,7.61 0,3.7 -1.36,7.13 -3.37,10.19 -3.31,5.03 -9.24,10.63 -13.6,14.77 -2.54,2.41 -5.13,4.77 -7.69,7.16 -1.97,1.84 -14.97,14.05 -15.13,16.61 0,0.51 0.23,0.9 0.59,1.2 0.63,0.45 1.45,0.58 2.25,0.58 4.79,0 11.62,-3.16 15.82,-5.26 8.05,-4.04 15.69,-9.21 22.86,-14.66 3.83,-2.78 7.49,-5.8 11.04,-8.88 1.38,-1.19 6.05,-5.44 7.94,-5.44 0.93,0 1.74,0.32 2.42,1 0.65,0.73 0.92,1.63 1.03,2.63 0,3.45 -12.31,12.99 -14.72,14.94l-0.62 0.52c-8.52,6.75 -17.63,13.02 -27.3,17.97 -5.64,2.88 -14.07,6.78 -20.52,6.78 -3.81,0 -7.39,-0.97 -10.27,-3.54 -2.77,-2.47 -4.04,-5.68 -4.04,-9.38 0,-5.07 2.2,-9.98 4.88,-14.18 3.63,-5.7 8.63,-10.74 13.75,-15.09 2.51,-2.23 5.11,-4.39 7.69,-6.56 1.58,-1.33 10.78,-9.08 11.38,-10.76 -0.01,-0.07 -0.16,-0.18 -0.34,-0.29 -0.4,-0.31 -0.89,-0.4 -1.33,-0.4 -6.67,0 -22.51,12.27 -27.58,16.24 -16.33,12.77 -31.54,27.48 -45.82,42.48l-0.23 0.24 -0.32 0.11c-1.01,0.36 -2.17,0.52 -3.23,0.64 -2,0.22 -4.17,0.23 -6.18,0.23 -1.77,0 -4.45,0.01 -6.16,-0.44 -1.38,-0.37 -2.52,-1.21 -2.52,-2.75 0,-3.17 9.51,-11.65 11.7,-13.68 4.14,-3.84 8.23,-7.74 12.25,-11.76l3.1 -2.8c2.85,-2.77 25.02,-24.24 25.39,-27.61 -0.03,-0.23 -0.1,-0.73 -0.16,-0.95 -2.61,0.05 -5.99,1.86 -8.27,3.29 -5.35,3.33 -10.74,7.97 -15.48,12.13 -2.09,1.77 -4.12,3.59 -6.11,5.45 -1.08,1.01 -2.19,2.02 -3.35,2.93 -0.63,0.78 -1.32,1.51 -2.02,2.22 -3.73,3.81 -8.03,7.45 -12.08,10.91 -7.87,6.7 -16.48,12.67 -25.83,17.12 -7.02,3.34 -15.12,6.2 -22.98,6.2 -5.97,0 -11.43,-1.72 -15.66,-6.05 -4.33,-4.44 -5.89,-10.23 -5.89,-16.33 0,-1.28 0.09,-2.56 0.26,-3.82 -0.45,0.36 -0.9,0.72 -1.35,1.07l-0.65 0.53c-8.53,6.81 -17.74,13.27 -27.51,18.17 -6.24,3.13 -14.55,6.69 -21.65,6.69 -3.87,0 -7.53,-1 -10.38,-3.69 -2.66,-2.52 -3.8,-5.78 -3.92,-9.36 -3.64,3.4 -7.63,6.63 -11.87,9.07 -3.68,2.11 -8.04,3.98 -12.35,3.98 -3.85,0 -7.14,-1.39 -9.46,-4.54 -2.53,-3.43 -3.19,-7.96 -3.19,-12.12 0,-2.46 0.25,-4.88 0.74,-7.27 -8.14,6.42 -16.85,12.4 -26.1,17.06 -6.3,3.18 -14.5,6.61 -21.66,6.61 -3.76,0 -7.4,-0.91 -10.17,-3.58 -2.73,-2.61 -3.75,-6.12 -3.75,-9.81 0,-6.14 2.16,-12.59 4.61,-18.15 2.66,-6.02 5.98,-11.93 9.52,-17.6 -3.75,2.93 -7.45,5.94 -11.08,9.03 -1.2,1.01 -2.4,2.02 -3.62,3.02 -1.66,1.98 -4.29,3.8 -6.43,5.2 -4.19,2.72 -9.11,4.93 -14.19,4.93 -2.77,0 -5.45,-0.53 -7.95,-1.75 -2.15,-1.06 -4.03,-2.62 -5.65,-4.38 -8.92,8.7 -18.77,17.28 -29.33,23.85 -6.84,4.25 -15.74,8.72 -23.99,8.72 -4.34,0 -8.4,-1.13 -11.54,-4.25 -3.07,-3.04 -4.3,-6.97 -4.3,-11.24 0,-7.23 3.32,-14.05 7.47,-19.8 5.61,-7.76 13.11,-14.37 20.86,-19.94 6.41,-4.61 13.32,-8.53 20.67,-11.42 5.89,-2.31 12.47,-4.2 18.84,-4.2 4.12,0 8.06,0.99 11.21,3.75 2.99,2.61 4.36,6.02 4.36,9.95 0,3.11 -1.01,6.18 -2.37,8.95 -1.65,3.39 -3.92,6.6 -6.3,9.55 0.7,1.22 1.64,2.24 2.87,2.97 1.56,0.89 3.36,1.21 5.15,1.21 3.66,0 7.53,-2.13 10.45,-4.16 1.2,-0.82 2.41,-1.64 3.65,-2.41 1.9,-1.83 3.91,-3.58 5.93,-5.27 10.12,-8.5 21,-16.54 31.62,-24.4l76.63 -85.99c0.94,-1.09 2.16,-2.31 3.47,-2.87 1.16,-0.59 2.53,-0.79 3.86,-0.79 2.18,0 4.58,0.23 6.6,1.07 1.63,0.68 3.22,1.84 3.22,3.78 0,0.9 -0.18,1.74 -0.62,2.56 -0.55,0.94 -1.48,1.91 -2.2,2.62l-88.69 103.55c-5.28,6.18 -10.48,12.89 -14.54,19.95 -2.07,3.59 -4.92,9.14 -4.92,13.39 0,1.13 0.12,2.83 0.82,3.74 0.61,0.72 1.69,0.88 2.62,0.88 4.53,0 9.49,-1.82 13.55,-3.71 6.87,-3.19 13.63,-7.63 19.8,-12 5.26,-3.73 10.33,-7.72 15.26,-11.88 1.66,-1.4 3.33,-2.8 5.04,-4.15zm721.19 -2.5c7.91,-6.94 16.55,-13.5 24.92,-19.87l9.97 -7.73 9.05 -9.95 -22.54 0 6.82 -7.25 22.7 0 23.37 -29.28c0.97,-1.17 2.14,-2.19 3.49,-2.78 1.36,-0.68 2.94,-0.92 4.48,-0.92 2.43,0 5.07,0.27 7.33,1.26 1.72,0.79 3.4,2.05 3.4,4.11 0,0.73 -0.1,1.41 -0.33,2.1 -0.26,0.76 -0.73,1.48 -1.23,2.2l-20.04 23.31 26.17 0 -6.89 7.25 -25 0 -29.51 33.89c-5.4,6.2 -11.12,13.09 -15.34,20.17 -2.17,3.63 -4.77,8.77 -4.77,13.11 0,1.08 0.11,2.61 0.8,3.51 0.53,0.69 1.46,0.85 2.29,0.85 5.21,0 11.77,-2.91 16.34,-5.22 8.23,-4.16 16.1,-9.58 23.43,-15.18 3.57,-2.62 6.94,-5.51 10.19,-8.5 0.98,-0.91 1.99,-1.8 2.96,-2.6 2.62,-2.68 5.67,-5.24 8.61,-7.66 10.04,-8.26 20.77,-15.96 31.44,-23.39l72.17 -85.06c0.95,-1.06 2.15,-2.31 3.41,-2.87 1.15,-0.61 2.6,-0.8 3.92,-0.8 2.22,0 4.61,0.23 6.68,1.06 1.64,0.67 3.32,1.82 3.32,3.79 0,1.62 -0.97,3.16 -2.04,4.39 -0.21,0.22 -0.37,0.41 -0.56,0.68l-78.79 92.8c4.17,-2.84 8.48,-5.52 12.83,-7.74 4.58,-2.33 10.34,-4.68 15.55,-4.68 2.87,0 5.56,0.77 7.6,2.86 2,2.06 2.75,4.78 2.75,7.61 0,3.71 -1.39,7.14 -3.42,10.19 -3.34,5.02 -9.09,10.55 -13.42,14.77 -2.64,2.39 -5.24,4.76 -7.82,7.16 -1.96,1.84 -14.97,14.05 -15.12,16.61 0,0.51 0.22,0.9 0.58,1.2 0.62,0.44 1.42,0.58 2.2,0.58 4.78,0 11.59,-3.15 15.77,-5.26 8.05,-4.06 15.67,-9.19 22.83,-14.66 3.84,-2.78 7.52,-5.79 11.09,-8.88 1.74,-1.51 3.87,-3.39 5.85,-4.62 4.01,-5.51 9.09,-10.23 14.56,-14.25 5.44,-3.99 11.33,-7.57 17.57,-10.15 4.88,-2.03 10.14,-3.43 15.45,-3.43 3.04,0 7.06,0.32 9.55,2.27 2.43,1.9 3.11,5 3.11,7.94 0,9.07 -8.34,16.66 -15.06,21.59 -10.55,7.73 -22.93,12.41 -35.67,15.06 -0.56,1.25 -1.02,2.54 -1.36,3.87 -0.3,1.2 -0.52,2.47 -0.52,3.72 0,2.07 0.55,3.96 2.14,5.35 1.72,1.52 4.09,1.97 6.32,1.97 6.38,0 13.49,-2.92 19.08,-5.78 8.79,-4.49 17.06,-10.41 24.69,-16.62 2.8,-2.42 5.58,-4.91 8.33,-7.42 0.95,-0.87 1.93,-1.74 2.93,-2.56 0.55,-0.76 1.19,-1.49 1.84,-2.17 2.87,-3.01 6.31,-5.91 9.49,-8.61 5.94,-5.04 12.35,-9.74 19.21,-13.46 3.84,-2.09 9.95,-5.15 14.41,-5.15 2.56,0 4.91,0.77 6.66,2.68 1.76,1.93 2.41,4.45 2.41,7.01 0,2.29 -0.46,4.65 -1.1,6.83 -0.25,0.97 -0.56,1.93 -0.91,2.89l16.08 -13.92c0.47,-0.55 1.19,-0.85 1.87,-1.06 0.75,-0.24 1.51,-0.39 2.38,-0.49 2.27,-0.01 4.56,0.2 6.64,0.89 1.43,0.48 3.53,1.35 3.53,3.16 0,1.22 -1.95,3.14 -2.74,3.97 -1.34,1.42 -2.65,2.89 -3.84,4.43 -2.76,3.57 -5.24,7.45 -7.02,11.6 -1.27,2.99 -2.37,6.43 -2.37,9.71 0,1.62 0.34,3.19 1.44,4.43 0.98,1.11 2.19,1.58 3.66,1.58 2.17,0 4.35,-0.78 6.26,-1.76 3.07,-1.58 6.18,-4.1 8.8,-6.33 1.93,-1.63 3.85,-3.27 5.72,-4.98 1.22,-1.11 4.44,-4.2 6.18,-4.2 1,0 1.94,0.32 2.62,1.08 0.58,0.66 0.85,1.61 0.95,2.55 0.01,1.46 -0.86,2.8 -1.7,3.84 -1.64,2.02 -4.21,4.12 -6.21,5.78 -4.45,3.66 -9.8,7.88 -14.97,10.46 -3.4,1.71 -7.13,2.9 -10.96,2.9 -4.33,0 -8.37,-1.19 -11.34,-4.47 -3.01,-3.35 -3.98,-7.75 -3.98,-12.15 0,-2.07 0.3,-4.16 0.73,-6.18 0.17,-0.8 0.37,-1.59 0.57,-2.39 -6.27,5.9 -12.31,12.04 -18.1,18.41 -6.66,7.34 -12.99,14.99 -18.88,22.97l-0.35 0.46 -0.56 0.09c-2.07,0.32 -4.15,0.6 -6.24,0.79 -1.74,0.16 -3.49,0.27 -5.23,0.27 -1.42,0 -2.99,-0.11 -4.33,-0.61 -1.16,-0.43 -2.31,-1.19 -2.31,-2.58 0,-2.46 6.19,-8.93 7.78,-10.66 2.4,-2.72 4.84,-5.4 7.28,-8.06 6.4,-7.49 13.67,-15.81 19.16,-24.02 1.66,-2.48 4.74,-7.38 4.74,-10.47 0,-0.18 -0.01,-0.63 0.11,-0.66 -2.57,0.01 -5.75,1.53 -7.94,2.75 -4.71,2.62 -9.4,6.16 -13.64,9.48 -2.15,1.67 -4.2,3.56 -6.19,5.41 -1.27,1.19 -2.67,2.44 -4.12,3.42 -0.52,0.61 -1.08,1.2 -1.64,1.77 -3.74,3.81 -8.03,7.45 -12.09,10.91 -7.86,6.7 -16.47,12.67 -25.82,17.12 -7.02,3.34 -15.12,6.2 -22.98,6.2 -5.97,0 -11.43,-1.72 -15.66,-6.05 -4.33,-4.44 -5.89,-10.23 -5.89,-16.33 0,-1.52 0.12,-3.03 0.36,-4.53 -0.72,0.59 -1.45,1.18 -2.17,1.77l-0.62 0.52c-8.49,6.7 -17.55,12.91 -27.16,17.84 -5.61,2.87 -14.06,6.78 -20.48,6.78 -3.81,0 -7.39,-0.97 -10.27,-3.54 -2.77,-2.47 -4.04,-5.68 -4.04,-9.38 0,-5.07 2.2,-9.98 4.88,-14.18 3.63,-5.7 8.63,-10.74 13.74,-15.09 2.52,-2.23 5.12,-4.39 7.7,-6.56 1.58,-1.33 10.78,-9.08 11.38,-10.76 -0.01,-0.07 -0.16,-0.18 -0.34,-0.29 -0.4,-0.31 -0.89,-0.4 -1.33,-0.4 -7.32,0 -22.76,12.12 -28.22,16.49 -15.38,12.29 -29.09,26.81 -41.4,42.14l-0.27 0.34 -0.42 0.12c-1.05,0.32 -2.16,0.5 -3.25,0.62 -1.99,0.23 -4.14,0.23 -6.13,0.23 -1.86,0 -4.57,0.02 -6.37,-0.44 -1.39,-0.35 -2.58,-1.19 -2.58,-2.75 0,-2.37 14.33,-17.18 16.12,-19.1 7.23,-7.73 14.27,-15.62 21.15,-23.66 -2.36,1.94 -4.69,3.9 -7,5.87 -1.65,1.41 -3.31,2.8 -5,4.15 -0.37,0.45 -0.78,0.89 -1.19,1.31 -3.71,3.79 -9,7.74 -13.17,11.06 -8.25,6.58 -17.22,12.91 -26.69,17.61 -6.41,3.18 -14.21,6.21 -21.47,6.21 -3.76,0 -7.42,-0.92 -10.21,-3.57 -2.75,-2.62 -3.84,-6.08 -3.84,-9.82 0,-6.63 2.18,-13.17 5.13,-19.04 2.48,-4.95 5.64,-9.8 9.03,-14.42 -2.71,2.2 -5.4,4.43 -8.06,6.69 -2.55,2.17 -5.23,4.43 -7.97,6.36 -3.2,3.05 -6.71,5.92 -10.16,8.67l-0.66 0.53c-8.5,6.79 -17.67,13.12 -27.42,18 -6.33,3.16 -14.59,6.6 -21.78,6.6 -3.84,0 -7.52,-0.98 -10.38,-3.65 -2.61,-2.44 -3.78,-5.6 -3.92,-9.09 -3.65,3.36 -7.64,6.59 -11.87,9.02 -3.68,2.11 -8.04,3.98 -12.35,3.98 -3.85,0 -7.14,-1.39 -9.46,-4.54 -2.52,-3.42 -3.19,-7.93 -3.19,-12.08 0,-2.04 0.17,-4.07 0.51,-6.07 -7.57,6.37 -15.83,11.98 -24.77,16.23 -7.02,3.34 -15.12,6.2 -22.98,6.2 -5.97,0 -11.43,-1.72 -15.66,-6.05 -4.34,-4.44 -5.89,-10.23 -5.89,-16.33 0,-6.55 2.23,-12.59 5.71,-18.07 4.22,-6.62 10.02,-12.19 16.32,-16.82 5.44,-3.99 11.33,-7.57 17.57,-10.15 4.88,-2.03 10.14,-3.43 15.45,-3.43 3.04,0 7.06,0.32 9.54,2.27 2.44,1.9 3.11,5 3.11,7.94 0,9.07 -8.33,16.66 -15.05,21.59 -10.55,7.73 -22.93,12.41 -35.67,15.06 -0.57,1.25 -1.02,2.54 -1.36,3.87 -0.3,1.2 -0.52,2.47 -0.52,3.72 0,2.07 0.55,3.96 2.14,5.35 1.72,1.52 4.09,1.97 6.32,1.97 6.38,0 13.49,-2.92 19.08,-5.78 8.79,-4.49 17.06,-10.41 24.69,-16.62 2.8,-2.42 5.58,-4.91 8.33,-7.42 0.9,-0.82 1.81,-1.63 2.74,-2.41 2.32,-2.77 4.9,-5.33 7.61,-7.72 7.24,-6.4 15.24,-11.84 24.03,-15.88 7.04,-3.24 15.13,-5.94 22.96,-5.94 2.99,0 6.53,0.44 8.94,2.36 1.58,1.26 2.5,3 2.99,4.89 0.76,-0.73 1.54,-1.43 2.35,-2.11 1.7,-1.45 3.54,-2.74 5.46,-3.89l0.33 -0.2 0.39 0c0.95,0 1.92,-0.06 2.87,-0.13 0.95,-0.06 1.93,-0.13 2.89,-0.13 2.05,0 4.97,0.05 6.88,0.78 1.66,0.57 2.85,1.84 2.85,3.67 0,2.35 -4.76,6.42 -6.36,7.85 -1.69,1.51 -3.41,2.98 -5.1,4.44 -9.2,8.72 -18.49,17.89 -26.74,27.57 -2.16,2.53 -9.39,11.14 -9.39,14.62 0,0.24 0.03,1.01 0.22,1.22 0.29,0.27 1.35,0.31 1.69,0.31 4.82,0 11.8,-3.18 16.05,-5.27 8.12,-4 15.82,-9.18 23.02,-14.64 3.74,-2.84 7.38,-5.82 10.92,-8.89 1.49,-1.29 4.89,-4.3 6.86,-5.18zm-210.56 -115.9c0,3.42 -2.39,8.76 -3.79,11.84 -2.54,5.55 -5.77,10.78 -9.4,15.69 -7.41,10.02 -16.33,19.01 -27.16,25.32 -9.63,5.62 -20.07,8.75 -31.23,8.75 -9.43,0 -18.23,-2.57 -25.03,-9.31 -6.76,-6.72 -9.35,-15.41 -9.35,-24.81 0,-20.11 10.47,-34.86 26.98,-45.66 20.49,-13.42 45.82,-17.5 69.9,-17.5 19.38,0 40.52,3.01 59.63,6.03l1.66 0.26c4.65,0.74 9.3,1.47 13.95,2.18 8.6,1.33 17.23,2.61 25.86,3.66 4.54,0.55 9.62,1.21 14.19,1.21 6.56,0 13.12,-1.01 19.44,-2.65 0.86,-0.25 2.38,-0.7 3.29,-0.7 0.98,0 1.91,0.3 2.62,0.88 0.83,0.55 1.35,1.5 1.35,2.56 0,4.46 -6.69,7.33 -10.09,8.68 -6.9,2.72 -14.46,3.72 -21.84,3.72 -3.74,0 -7.48,-0.26 -11.19,-0.67 -3.83,-0.42 -7.63,-1.07 -11.38,-1.95 -3.15,-0.73 -6.29,-1.5 -9.43,-2.27 -22.18,-5.43 -50.68,-12.13 -73.56,-12.13 -11.45,0 -22.98,1.25 -33.98,4.52 -9.71,2.9 -18.8,7.29 -26.85,13.47 -7.87,6.04 -16.12,13.23 -21.97,21.3 -3.92,5.42 -7.15,11.89 -7.15,18.73 0,6.03 2.12,11.02 6.68,14.99 4.95,4.32 11.16,5.85 17.62,5.85 10.29,0 19.66,-3.5 28.13,-9.22 10.37,-7 18.78,-16.94 25.61,-27.3 2.35,-3.73 4.4,-7.7 6.23,-11.73 0.97,-2.16 3.5,-7.97 6.42,-7.97 1.14,0 2.12,0.4 2.86,1.28 0.71,0.85 0.98,1.86 0.98,2.95zm-670.62 147.05c0,0.69 0.09,1.72 0.64,2.2 0.65,0.54 1.85,0.63 2.67,0.63 4.56,0 10.27,-2.85 14.14,-5.05 7.45,-4.25 14.59,-9.81 21.12,-15.34 5.77,-4.89 11.52,-10.4 16.1,-16.44 2.12,-2.8 5.61,-7.83 5.61,-11.5 0,-1.09 -0.26,-2.06 -1.06,-2.83 -0.81,-0.78 -1.95,-1.01 -3.04,-1.01 -3.5,0 -8.2,2.32 -11.19,3.97 -5.57,3.08 -10.78,7.06 -15.6,11.18 -7.56,6.46 -15.21,13.47 -21.61,21.08 -2.2,2.62 -7.78,9.49 -7.78,13.11zm187.02 -10.17l21.48 -22.74c0.92,-0.92 1.82,-1.82 2.7,-2.7 1.66,-1.8 8.42,-9.22 8.42,-11.81 0,-0.36 -0.1,-0.7 -0.38,-0.94 -0.42,-0.36 -1.01,-0.45 -1.54,-0.45 -3.46,0 -7.76,1.92 -10.79,3.46 -5.11,2.62 -9.87,6.1 -14.26,9.78 -7.35,6.14 -14.22,13.02 -19.83,20.81 -2.43,3.37 -7.68,10.95 -7.68,15.28 0,0.69 0.13,1.37 0.68,1.89 0.49,0.51 1.12,0.68 1.76,0.68 2.65,0 6.12,-2.04 8.27,-3.44 4.12,-2.69 7.84,-6.19 11.17,-9.82zm88.89 -12.44c8.71,-2.14 17.28,-5.42 24.72,-10.44 4.11,-2.78 11.16,-8.12 11.16,-13.72 0,-0.7 -0.08,-2 -0.57,-2.57 -0.39,-0.44 -1.46,-0.52 -2,-0.52 -5.14,0 -11.11,4.41 -14.85,7.56 -6.7,5.65 -12.9,12.72 -18.46,19.69zm448.41 0c8.72,-2.14 17.28,-5.42 24.73,-10.44 4.11,-2.78 11.16,-8.12 11.16,-13.72 0,-0.7 -0.08,-2 -0.57,-2.57 -0.39,-0.44 -1.47,-0.52 -2,-0.52 -5.14,0 -11.11,4.41 -14.85,7.56 -6.7,5.65 -12.9,12.72 -18.47,19.69zm81.98 12.44l29.43 -31.26c0.9,-1 1.77,-2.1 2.42,-3.3 0.46,-0.83 0.79,-1.74 0.79,-2.69 0,-0.36 -0.09,-0.68 -0.42,-0.94 -0.4,-0.37 -1.02,-0.45 -1.49,-0.45 -3.49,0 -7.79,1.91 -10.84,3.46 -5.11,2.62 -9.87,6.1 -14.26,9.78 -7.34,6.13 -14.23,13.03 -19.83,20.81 -2.43,3.37 -7.68,10.95 -7.68,15.28 0,0.69 0.13,1.37 0.67,1.87 0.51,0.51 1.08,0.7 1.77,0.7 2.67,0 6.11,-1.98 8.27,-3.39 4.12,-2.69 7.84,-6.24 11.17,-9.87zm268.17 -12.44c8.71,-2.14 17.27,-5.42 24.72,-10.44 4.11,-2.78 11.16,-8.12 11.16,-13.72 0,-0.7 -0.08,-2 -0.57,-2.57 -0.39,-0.44 -1.46,-0.52 -2,-0.52 -5.14,0 -11.11,4.41 -14.85,7.56 -6.7,5.65 -12.9,12.72 -18.46,19.69z"/>
   <path class="fil0" d="M465.48 1763.25l12.77 0 9.91 38.78 0.18 0 0 -38.78 9.07 0 0 64.79 -10.46 0 -12.21 -47.3 -0.19 0 0 47.3 -9.07 0 0 -64.79zm39.52 0l27.77 0 0 9.25 -17.59 0 0 17.13 13.98 0 0 9.25 -13.98 0 0 19.9 17.59 0 0 9.26 -27.77 0 0 -64.79zm31.19 0l9.81 0 4.54 49.79 0.18 0 4.82 -49.79 11.1 0 4.82 49.79 0.18 0 4.54 -49.79 8.79 0 -6.57 64.79 -12.68 0 -4.63 -43.69 -0.19 0 -4.62 43.69 -13.52 0 -6.57 -64.79z"/>
   <polygon class="fil2" points="1312.55,1973.38 1312.55,2009.77 1307.65,2009.77 1307.65,1973.38 1294.41,1973.38 1294.41,1968.48 1325.79,1968.48 1325.79,1973.38 "/>
   <path class="fil2" d="M1344.42 1983.41c-0.93,0 -1.81,0.12 -2.63,0.35 -0.81,0.23 -1.51,0.58 -2.15,1.05 -0.65,0.53 -1.11,1.11 -1.46,1.81 -0.41,0.7 -0.59,1.52 -0.59,2.45l0 20.7 -4.66 0 0 -20.7c0,-1.69 0.35,-3.21 1.05,-4.49 0.64,-1.23 1.51,-2.28 2.62,-3.09 1.11,-0.82 2.34,-1.46 3.68,-1.87 1.34,-0.41 2.62,-0.64 3.96,-0.64 0.41,0 0.88,0 1.35,0.06 0.4,0.05 0.87,0.11 1.28,0.17l0 4.38c-0.41,-0.06 -0.82,-0.12 -1.23,-0.18 -0.41,0 -0.81,0 -1.22,0z"/>
   <path class="fil2" d="M1372.79 2010.36c-1.46,0 -2.86,-0.24 -4.2,-0.64 -1.34,-0.41 -2.57,-1.05 -3.62,-1.93 -1.1,-0.82 -1.98,-1.87 -2.62,-3.09 -0.64,-1.22 -0.99,-2.68 -0.99,-4.37l0 -20.77 4.66 0 0 20.82c0,0.88 0.18,1.7 0.59,2.34 0.4,0.7 0.93,1.28 1.57,1.75 0.64,0.46 1.34,0.81 2.16,1.05 0.76,0.29 1.57,0.4 2.45,0.4 1.34,0 2.62,-0.05 3.85,-0.23 1.17,-0.17 2.27,-0.41 3.27,-0.76l0 -25.37 4.66 0 0 28.58c-1.4,0.53 -2.68,0.88 -3.85,1.17 -1.16,0.29 -2.21,0.52 -3.21,0.7 -0.99,0.17 -1.86,0.23 -2.62,0.29 -0.76,0.06 -1.46,0.06 -2.1,0.06z"/>
   <path class="fil2" d="M1412.18 2006.04c0.7,0 1.4,-0.12 2.04,-0.35 0.65,-0.17 1.29,-0.52 1.81,-0.93 0.53,-0.41 0.99,-0.88 1.29,-1.46 0.29,-0.58 0.46,-1.28 0.46,-2.04 0,-0.82 -0.17,-1.52 -0.52,-2.04 -0.41,-0.53 -0.88,-0.94 -1.46,-1.29 -0.58,-0.29 -1.23,-0.58 -1.93,-0.75 -0.7,-0.18 -1.4,-0.35 -2.04,-0.47 -1.22,-0.23 -2.51,-0.53 -3.73,-0.88 -1.28,-0.29 -2.45,-0.81 -3.44,-1.45 -0.99,-0.65 -1.81,-1.52 -2.45,-2.57 -0.64,-0.99 -0.99,-2.33 -0.99,-3.97 0,-1.57 0.35,-2.97 1.05,-4.08 0.64,-1.11 1.51,-2.04 2.56,-2.74 1.05,-0.7 2.22,-1.23 3.56,-1.57 1.28,-0.3 2.57,-0.47 3.79,-0.47 1.58,0 3.21,0.29 4.84,0.87 1.58,0.59 3.04,1.52 4.26,2.74l-2.86 3.33c-0.93,-0.99 -1.92,-1.63 -3.03,-2.04 -1.11,-0.41 -2.16,-0.59 -3.21,-0.59 -0.64,0 -1.34,0.06 -2.1,0.18 -0.76,0.17 -1.4,0.41 -2.04,0.76 -0.64,0.35 -1.17,0.81 -1.57,1.34 -0.41,0.58 -0.65,1.28 -0.65,2.16 0,0.87 0.24,1.63 0.7,2.15 0.47,0.53 1.05,1 1.76,1.29 0.64,0.29 1.39,0.52 2.21,0.7 0.76,0.17 1.52,0.35 2.16,0.47 1.17,0.23 2.33,0.52 3.5,0.93 1.17,0.41 2.22,0.93 3.15,1.57 0.87,0.7 1.63,1.58 2.21,2.63 0.59,1.05 0.88,2.33 0.88,3.85 0,1.51 -0.29,2.86 -0.88,3.96 -0.58,1.11 -1.34,2.04 -2.27,2.8 -0.99,0.76 -2.04,1.34 -3.27,1.75 -1.22,0.35 -2.5,0.53 -3.79,0.53 -2.39,0 -4.61,-0.47 -6.7,-1.4 -2.16,-0.94 -3.97,-2.57 -5.43,-4.9l3.5 -2.39c0.99,1.51 2.33,2.62 3.91,3.32 1.57,0.7 3.15,1.05 4.72,1.05z"/>
   <path class="fil2" d="M1448.54 2010.36c-1.51,0 -2.91,-0.24 -4.2,-0.7 -1.34,-0.41 -2.45,-1.05 -3.38,-1.93 -0.93,-0.87 -1.63,-1.92 -2.16,-3.15 -0.52,-1.22 -0.81,-2.56 -0.81,-4.14l0 -28.52 4.6 0 0 7.64 6.19 0 0 4.32 -6.19 0 0 16.56c0,0.88 0.18,1.69 0.53,2.45 0.35,0.82 0.87,1.52 1.57,2.04 0.64,0.59 1.46,0.99 2.39,1.23 0.53,0.17 1.05,0.23 1.64,0.23 0.52,0 1.05,-0.06 1.63,-0.17l0 4.02c-0.29,0.06 -0.58,0.06 -0.87,0.12 -0.3,0 -0.65,0 -0.94,0z"/>
   <path class="fil2" d="M1468.81 2000.68c0,0.93 0.17,1.75 0.58,2.39 0.41,0.64 0.93,1.22 1.57,1.63 0.65,0.47 1.4,0.82 2.28,0.99 0.82,0.23 1.69,0.35 2.57,0.35 1.34,0 2.68,-0.35 4.02,-0.99 1.28,-0.64 2.22,-1.69 2.86,-3.09l4.08 1.75c-0.52,1.11 -1.22,2.1 -1.98,2.91 -0.82,0.82 -1.69,1.52 -2.63,2.05 -0.99,0.58 -1.98,0.99 -3.09,1.28 -1.11,0.29 -2.16,0.41 -3.26,0.41 -1.46,0 -2.92,-0.18 -4.32,-0.64 -1.4,-0.41 -2.62,-1 -3.73,-1.87 -1.11,-0.82 -1.99,-1.87 -2.63,-3.15 -0.7,-1.22 -1.05,-2.68 -1.05,-4.37l0 -11.32c0,-1.69 0.35,-3.15 1.05,-4.43 0.64,-1.23 1.52,-2.28 2.63,-3.15 1.11,-0.82 2.33,-1.46 3.73,-1.87 1.4,-0.41 2.86,-0.58 4.32,-0.58 1.45,0 2.85,0.17 4.25,0.58 1.34,0.41 2.57,1.05 3.68,1.87 1.11,0.87 1.98,1.92 2.62,3.15 0.64,1.28 0.99,2.74 0.99,4.43l0 7.99 -18.54 0 0 3.68zm14.11 -11.9c0,-0.88 -0.23,-1.69 -0.64,-2.39 -0.41,-0.65 -0.99,-1.23 -1.63,-1.7 -0.65,-0.46 -1.4,-0.81 -2.28,-1.1 -0.87,-0.24 -1.69,-0.35 -2.56,-0.35 -1,0 -1.87,0.11 -2.75,0.35 -0.87,0.29 -1.57,0.64 -2.21,1.1 -0.64,0.47 -1.17,1.05 -1.52,1.75 -0.35,0.7 -0.52,1.52 -0.52,2.45l0 4.2 14.11 0 0 -4.31z"/>
   <path class="fil2" d="M1502.78 2000.33l0 -11.2c0,-1.64 0.35,-3.09 0.99,-4.38 0.64,-1.22 1.57,-2.27 2.68,-3.15 1.11,-0.81 2.33,-1.46 3.73,-1.92 1.35,-0.41 2.8,-0.64 4.26,-0.64 1.29,0 2.51,0.11 3.68,0.41 1.16,0.29 2.27,0.75 3.38,1.45l0 -11.95 4.67 0 0 39.25c-1.99,0.64 -3.97,1.17 -5.95,1.57 -1.99,0.41 -3.97,0.59 -5.89,0.59 -1.46,-0.06 -2.86,-0.24 -4.2,-0.7 -1.4,-0.41 -2.63,-0.99 -3.74,-1.87 -1.11,-0.82 -1.98,-1.87 -2.62,-3.09 -0.64,-1.22 -0.99,-2.68 -0.99,-4.37zm11.55 5.89c1.16,0 2.39,-0.06 3.61,-0.18 1.23,-0.12 2.45,-0.35 3.56,-0.7l0 -20.47c-1.11,-0.58 -2.28,-0.99 -3.5,-1.28 -1.22,-0.3 -2.45,-0.41 -3.56,-0.41 -0.87,0 -1.75,0.11 -2.56,0.35 -0.82,0.29 -1.58,0.64 -2.22,1.11 -0.64,0.52 -1.17,1.1 -1.58,1.86 -0.4,0.76 -0.58,1.64 -0.58,2.63l0 11.14c0,0.87 0.18,1.69 0.58,2.39 0.41,0.76 0.94,1.34 1.58,1.86 0.64,0.53 1.34,0.94 2.16,1.23 0.81,0.29 1.63,0.47 2.51,0.47z"/>
   <path class="fil2" d="M1555 1989.07c0,-1.69 0.35,-3.15 1.05,-4.43 0.65,-1.23 1.52,-2.28 2.63,-3.15 1.11,-0.82 2.33,-1.46 3.73,-1.87 1.4,-0.41 2.86,-0.64 4.32,-0.64 1.46,0 2.85,0.23 4.26,0.64 1.39,0.41 2.62,1.05 3.73,1.87 1.11,0.87 1.98,1.92 2.62,3.15 0.65,1.28 0.99,2.74 0.99,4.43l0 11.2c0,1.69 -0.34,3.21 -0.99,4.43 -0.64,1.22 -1.51,2.27 -2.62,3.09 -1.11,0.88 -2.34,1.52 -3.73,1.93 -1.41,0.4 -2.8,0.64 -4.26,0.64 -1.46,0 -2.92,-0.24 -4.32,-0.64 -1.4,-0.41 -2.62,-1.05 -3.73,-1.93 -1.11,-0.82 -1.98,-1.87 -2.63,-3.09 -0.7,-1.22 -1.05,-2.74 -1.05,-4.43l0 -11.2zm11.73 -5.66c-0.88,0 -1.69,0.12 -2.51,0.29 -0.88,0.24 -1.63,0.59 -2.27,1.05 -0.7,0.47 -1.23,1.05 -1.64,1.75 -0.41,0.7 -0.64,1.52 -0.64,2.45l0 11.38c0,0.93 0.23,1.75 0.64,2.44 0.41,0.71 0.94,1.29 1.64,1.75 0.64,0.47 1.39,0.82 2.27,1.05 0.82,0.24 1.63,0.35 2.51,0.35 0.81,0 1.63,-0.11 2.45,-0.35 0.81,-0.23 1.57,-0.58 2.27,-1.05 0.64,-0.46 1.23,-1.04 1.64,-1.75 0.4,-0.69 0.58,-1.51 0.58,-2.44l0 -11.38c0,-0.93 -0.18,-1.75 -0.58,-2.45 -0.41,-0.7 -1,-1.28 -1.64,-1.75 -0.7,-0.46 -1.46,-0.81 -2.27,-1.05 -0.82,-0.17 -1.64,-0.29 -2.45,-0.29z"/>
   <path class="fil2" d="M1618.14 1988.89l0 20.88 -4.61 0 0 -21.05c0,-0.94 -0.17,-1.75 -0.58,-2.45 -0.41,-0.64 -0.94,-1.23 -1.58,-1.69 -0.64,-0.41 -1.4,-0.76 -2.16,-0.99 -0.81,-0.18 -1.63,-0.3 -2.45,-0.3 -1.34,0 -2.68,0.12 -3.9,0.41 -1.29,0.29 -2.34,0.64 -3.21,0.94l0 25.13 -4.67 0 0 -28.28c1.93,-0.65 3.91,-1.23 5.95,-1.75 1.98,-0.53 3.91,-0.76 5.83,-0.76 1.46,0.06 2.86,0.23 4.2,0.64 1.35,0.41 2.57,1.05 3.68,1.87 1.05,0.81 1.92,1.8 2.56,3.03 0.65,1.22 0.94,2.68 0.94,4.37z"/>
   <path class="fil2" d="M1645.63 2010.36c-3.32,0 -5.83,-0.88 -7.58,-2.63 -1.81,-1.69 -2.68,-4.14 -2.68,-7.23l0 -31.5 4.66 0 0 31.5c0,1.69 0.47,2.98 1.35,3.97 0.87,0.99 2.33,1.51 4.25,1.51l0 4.38z"/>
   <path class="fil2" d="M1658.9 1971.16c0,-0.99 0.35,-1.81 0.99,-2.45 0.64,-0.64 1.46,-0.99 2.45,-0.99 0.99,0 1.81,0.35 2.45,0.99 0.64,0.64 0.99,1.46 0.99,2.45 0,0.99 -0.35,1.81 -0.99,2.45 -0.64,0.64 -1.46,0.99 -2.45,0.99 -0.99,0 -1.81,-0.35 -2.45,-0.99 -0.64,-0.64 -0.99,-1.46 -0.99,-2.45zm5.71 38.61l-4.9 0 0 -30.21 4.9 0 0 30.21z"/>
   <path class="fil2" d="M1705.35 1988.89l0 20.88 -4.61 0 0 -21.05c0,-0.94 -0.17,-1.75 -0.58,-2.45 -0.41,-0.64 -0.93,-1.23 -1.58,-1.69 -0.64,-0.41 -1.4,-0.76 -2.15,-0.99 -0.82,-0.18 -1.64,-0.3 -2.45,-0.3 -1.34,0 -2.69,0.12 -3.91,0.41 -1.28,0.29 -2.33,0.64 -3.21,0.94l0 25.13 -4.67 0 0 -28.28c1.93,-0.65 3.91,-1.23 5.95,-1.75 1.99,-0.53 3.91,-0.76 5.84,-0.76 1.45,0.06 2.85,0.23 4.2,0.64 1.34,0.41 2.56,1.05 3.67,1.87 1.05,0.81 1.93,1.8 2.57,3.03 0.64,1.22 0.93,2.68 0.93,4.37z"/>
   <path class="fil2" d="M1726.6 2000.68c0,0.93 0.18,1.75 0.59,2.39 0.41,0.64 0.93,1.22 1.57,1.63 0.64,0.47 1.4,0.82 2.28,0.99 0.81,0.23 1.69,0.35 2.56,0.35 1.35,0 2.69,-0.35 4.03,-0.99 1.28,-0.64 2.21,-1.69 2.86,-3.09l4.08 1.75c-0.53,1.11 -1.23,2.1 -1.98,2.91 -0.82,0.82 -1.7,1.52 -2.63,2.05 -0.99,0.58 -1.98,0.99 -3.09,1.28 -1.11,0.29 -2.16,0.41 -3.27,0.41 -1.45,0 -2.91,-0.18 -4.31,-0.64 -1.4,-0.41 -2.63,-1 -3.74,-1.87 -1.1,-0.82 -1.98,-1.87 -2.62,-3.15 -0.7,-1.22 -1.05,-2.68 -1.05,-4.37l0 -11.32c0,-1.69 0.35,-3.15 1.05,-4.43 0.64,-1.23 1.52,-2.28 2.62,-3.15 1.11,-0.82 2.34,-1.46 3.74,-1.87 1.4,-0.41 2.86,-0.58 4.31,-0.58 1.46,0 2.86,0.17 4.26,0.58 1.34,0.41 2.57,1.05 3.68,1.87 1.1,0.87 1.98,1.92 2.62,3.15 0.64,1.28 0.99,2.74 0.99,4.43l0 7.99 -18.55 0 0 3.68zm14.12 -11.9c0,-0.88 -0.23,-1.69 -0.64,-2.39 -0.41,-0.65 -0.99,-1.23 -1.64,-1.7 -0.64,-0.46 -1.39,-0.81 -2.27,-1.1 -0.88,-0.24 -1.69,-0.35 -2.57,-0.35 -0.99,0 -1.86,0.11 -2.74,0.35 -0.87,0.29 -1.57,0.64 -2.21,1.1 -0.65,0.47 -1.17,1.05 -1.52,1.75 -0.35,0.7 -0.53,1.52 -0.53,2.45l0 4.2 14.12 0 0 -4.31z"/>
   <path class="fil2" d="M1785.54 1978.98c1.46,0 2.86,0.23 4.26,0.64 1.34,0.41 2.56,1.05 3.67,1.87 1.11,0.81 1.98,1.86 2.63,3.09 0.64,1.28 0.99,2.74 0.99,4.43l0 11.2c0,1.63 -0.35,3.09 -0.99,4.31 -0.65,1.29 -1.52,2.34 -2.63,3.21 -1.11,0.88 -2.39,1.52 -3.79,1.93 -1.4,0.41 -2.86,0.64 -4.32,0.64 -1.22,0 -2.45,-0.12 -3.55,-0.35 -1.17,-0.29 -2.34,-0.7 -3.45,-1.28l0 11.66 -4.66 0 0 -39.19c1.98,-0.65 3.96,-1.17 5.95,-1.58 1.98,-0.41 3.96,-0.58 5.89,-0.58zm-0.12 26.89c0.88,0 1.69,-0.12 2.57,-0.41 0.81,-0.23 1.57,-0.59 2.21,-1.05 0.65,-0.47 1.17,-1.05 1.58,-1.75 0.41,-0.7 0.58,-1.52 0.58,-2.39l0 -11.32c0,-0.87 -0.17,-1.63 -0.58,-2.33 -0.41,-0.64 -0.88,-1.23 -1.52,-1.69 -0.64,-0.47 -1.4,-0.82 -2.21,-1.11 -0.82,-0.23 -1.64,-0.35 -2.51,-0.35 -1.23,0 -2.39,0.06 -3.62,0.12 -1.22,0.05 -2.45,0.29 -3.56,0.58l0 20.35c1.11,0.41 2.28,0.76 3.5,1 1.17,0.23 2.34,0.35 3.56,0.35z"/>
   <path class="fil2" d="M1830.65 1988.72c0,-0.88 -0.18,-1.63 -0.58,-2.33 -0.41,-0.65 -1,-1.23 -1.64,-1.7 -0.64,-0.46 -1.4,-0.81 -2.27,-1.05 -0.88,-0.23 -1.75,-0.35 -2.63,-0.35 -1.34,0 -2.74,0.24 -4.08,0.76 -1.34,0.53 -2.51,1.4 -3.38,2.51l-2.92 -2.86c1.4,-1.57 3.09,-2.74 5.02,-3.56 1.92,-0.75 3.79,-1.16 5.71,-1.16 1.46,0 2.86,0.17 4.26,0.58 1.34,0.41 2.57,1.05 3.68,1.81 1.05,0.82 1.92,1.81 2.56,3.03 0.64,1.23 0.93,2.69 0.93,4.32l0 19.6c-2.1,0.75 -4.19,1.28 -6.29,1.57 -1.87,0.29 -3.74,0.47 -5.55,0.47 -0.23,0 -0.46,0 -0.64,0 -1.51,0 -2.91,-0.18 -4.26,-0.59 -1.34,-0.4 -2.44,-0.99 -3.38,-1.75 -0.99,-0.75 -1.75,-1.74 -2.27,-2.91 -0.59,-1.17 -0.88,-2.57 -0.88,-4.2 0,-1.69 0.35,-3.09 0.99,-4.32 0.65,-1.22 1.46,-2.21 2.51,-2.97 1.05,-0.76 2.28,-1.34 3.62,-1.75 1.34,-0.41 2.8,-0.58 4.26,-0.58 2.5,0 4.95,0.46 7.23,1.45l0 -4.02zm-6.77 6.24c-0.93,0 -1.81,0.12 -2.68,0.29 -0.88,0.23 -1.69,0.58 -2.33,1.05 -0.65,0.47 -1.17,1.05 -1.58,1.81 -0.41,0.76 -0.64,1.69 -0.64,2.8 0,1.92 0.58,3.32 1.81,4.14 1.22,0.87 2.68,1.28 4.49,1.34 0.41,0 0.87,0 1.28,0 0.88,0 1.69,0 2.57,-0.06 1.34,-0.05 2.62,-0.23 3.85,-0.52l0 -9.68c-0.93,-0.3 -1.98,-0.59 -3.15,-0.82 -1.17,-0.23 -2.39,-0.35 -3.62,-0.35z"/>
   <path class="fil2" d="M1863.8 1983.41c-0.93,0 -1.81,0.12 -2.62,0.35 -0.82,0.23 -1.52,0.58 -2.16,1.05 -0.64,0.53 -1.11,1.11 -1.46,1.81 -0.41,0.7 -0.58,1.52 -0.58,2.45l0 20.7 -4.67 0 0 -20.7c0,-1.69 0.35,-3.21 1.05,-4.49 0.64,-1.23 1.52,-2.28 2.63,-3.09 1.1,-0.82 2.33,-1.46 3.67,-1.87 1.34,-0.41 2.63,-0.64 3.97,-0.64 0.41,0 0.87,0 1.34,0.06 0.41,0.05 0.87,0.11 1.28,0.17l0 4.38c-0.41,-0.06 -0.82,-0.12 -1.22,-0.18 -0.41,0 -0.82,0 -1.23,0z"/>
   <path class="fil2" d="M1891.3 2010.36c-1.52,0 -2.92,-0.24 -4.2,-0.7 -1.34,-0.41 -2.45,-1.05 -3.39,-1.93 -0.93,-0.87 -1.63,-1.92 -2.15,-3.15 -0.53,-1.22 -0.82,-2.56 -0.82,-4.14l0 -28.52 4.61 0 0 7.64 6.18 0 0 4.32 -6.18 0 0 16.56c0,0.88 0.17,1.69 0.52,2.45 0.35,0.82 0.88,1.52 1.58,2.04 0.64,0.59 1.45,0.99 2.39,1.23 0.52,0.17 1.05,0.23 1.63,0.23 0.53,0 1.05,-0.06 1.63,-0.17l0 4.02c-0.29,0.06 -0.58,0.06 -0.87,0.12 -0.29,0 -0.64,0 -0.93,0z"/>
   <path class="fil2" d="M1930.81 1988.89l0 20.88 -4.61 0 0 -21.05c0,-0.94 -0.18,-1.75 -0.59,-2.45 -0.4,-0.64 -0.93,-1.23 -1.57,-1.69 -0.64,-0.41 -1.4,-0.76 -2.16,-0.99 -0.81,-0.18 -1.63,-0.3 -2.45,-0.3 -1.34,0 -2.68,0.12 -3.91,0.41 -1.28,0.29 -2.33,0.64 -3.2,0.94l0 25.13 -4.67 0 0 -28.28c1.93,-0.65 3.91,-1.23 5.95,-1.75 1.98,-0.53 3.91,-0.76 5.83,-0.76 1.46,0.06 2.86,0.23 4.2,0.64 1.34,0.41 2.57,1.05 3.68,1.87 1.05,0.81 1.92,1.8 2.56,3.03 0.64,1.22 0.94,2.68 0.94,4.37z"/>
   <path class="fil2" d="M1952.06 2000.68c0,0.93 0.18,1.75 0.58,2.39 0.41,0.64 0.94,1.22 1.58,1.63 0.64,0.47 1.4,0.82 2.27,0.99 0.82,0.23 1.7,0.35 2.57,0.35 1.34,0 2.68,-0.35 4.03,-0.99 1.28,-0.64 2.21,-1.69 2.85,-3.09l4.09 1.75c-0.53,1.11 -1.23,2.1 -1.99,2.91 -0.81,0.82 -1.69,1.52 -2.62,2.05 -0.99,0.58 -1.99,0.99 -3.09,1.28 -1.11,0.29 -2.16,0.41 -3.27,0.41 -1.46,0 -2.92,-0.18 -4.32,-0.64 -1.4,-0.41 -2.62,-1 -3.73,-1.87 -1.11,-0.82 -1.98,-1.87 -2.62,-3.15 -0.7,-1.22 -1.05,-2.68 -1.05,-4.37l0 -11.32c0,-1.69 0.35,-3.15 1.05,-4.43 0.64,-1.23 1.51,-2.28 2.62,-3.15 1.11,-0.82 2.33,-1.46 3.73,-1.87 1.4,-0.41 2.86,-0.58 4.32,-0.58 1.46,0 2.86,0.17 4.26,0.58 1.34,0.41 2.56,1.05 3.67,1.87 1.11,0.87 1.99,1.92 2.63,3.15 0.64,1.28 0.99,2.74 0.99,4.43l0 7.99 -18.55 0 0 3.68zm14.12 -11.9c0,-0.88 -0.24,-1.69 -0.65,-2.39 -0.4,-0.65 -0.99,-1.23 -1.63,-1.7 -0.64,-0.46 -1.4,-0.81 -2.27,-1.1 -0.88,-0.24 -1.69,-0.35 -2.57,-0.35 -0.99,0 -1.87,0.11 -2.74,0.35 -0.88,0.29 -1.58,0.64 -2.22,1.1 -0.64,0.47 -1.16,1.05 -1.51,1.75 -0.35,0.7 -0.53,1.52 -0.53,2.45l0 4.2 14.12 0 0 -4.31z"/>
   <path class="fil2" d="M1998.22 1983.41c-0.93,0 -1.81,0.12 -2.62,0.35 -0.82,0.23 -1.52,0.58 -2.16,1.05 -0.64,0.53 -1.11,1.11 -1.46,1.81 -0.41,0.7 -0.58,1.52 -0.58,2.45l0 20.7 -4.67 0 0 -20.7c0,-1.69 0.35,-3.21 1.05,-4.49 0.64,-1.23 1.52,-2.28 2.63,-3.09 1.1,-0.82 2.33,-1.46 3.67,-1.87 1.34,-0.41 2.62,-0.64 3.97,-0.64 0.4,0 0.87,0 1.34,0.06 0.41,0.05 0.87,0.11 1.28,0.17l0 4.38c-0.41,-0.06 -0.82,-0.12 -1.22,-0.18 -0.41,0 -0.82,0 -1.23,0z"/>
  </g>
 </g>
</svg>
